<?xml version="1.0" standalone="no"?>
<!DOCTYPE svg PUBLIC "-//W3C//DTD SVG 20010904//EN"
 "http://www.w3.org/TR/2001/REC-SVG-20010904/DTD/svg10.dtd">
<svg version="1.0" xmlns="http://www.w3.org/2000/svg"
 width="880.000000pt" height="880.000000pt" viewBox="0 0 880.000000 880.000000"
 preserveAspectRatio="xMidYMid meet">
<metadata>
Created by potrace 1.11, written by Peter Selinger 2001-2013
</metadata>
<g transform="translate(0.000000,880.000000) scale(0.100000,-0.100000)"
fill="#000000" stroke="none">
<path d="M4325 8790 c-22 -5 -59 -15 -82 -24 -23 -8 -758 -465 -1635 -1015
-1690 -1062 -1657 -1040 -1713 -1152 -58 -112 -55 1 -55 -2199 0 -2206 -3
-2086 56 -2202 14 -28 49 -74 78 -102 63 -62 3188 -2030 3281 -2066 84 -33
216 -33 300 0 93 36 3218 2004 3281 2066 29 28 64 74 78 102 59 116 56 -4 56
2202 0 2200 3 2087 -55 2199 -56 112 -24 90 -1714 1152 -1001 629 -1614 1008
-1649 1020 -66 23 -171 32 -227 19z m-98 -1507 c82 -53 108 -162 60 -247 -30
-53 -66 -72 -199 -105 -646 -160 -1081 -732 -1054 -1386 8 -211 44 -358 131
-543 65 -138 215 -352 247 -352 6 0 40 18 76 41 35 22 105 61 155 85 49 24 92
45 94 47 2 3 -24 33 -58 68 -251 261 -344 637 -243 985 80 276 282 510 547
634 100 47 141 55 198 40 75 -21 139 -106 139 -185 -1 -32 -35 -98 -66 -127
-16 -14 -57 -37 -90 -51 -142 -57 -269 -175 -334 -312 -50 -104 -64 -169 -64
-285 1 -270 174 -510 434 -601 55 -20 85 -23 200 -24 115 0 145 3 201 23 367
127 542 542 373 887 -67 138 -161 228 -322 307 -122 60 -152 97 -152 188 0
129 112 210 240 174 172 -49 382 -210 498 -381 127 -187 178 -374 169 -614 -5
-161 -28 -254 -93 -388 -56 -117 -111 -196 -200 -284 -194 -193 -454 -297
-742 -297 -320 0 -668 -144 -913 -378 -202 -192 -342 -441 -399 -710 -74 -347
-3 -734 189 -1028 196 -301 481 -504 834 -593 142 -36 170 -50 202 -104 43
-75 30 -171 -31 -229 -62 -57 -122 -61 -286 -19 -1015 262 -1573 1364 -1182
2337 68 170 186 365 294 487 l52 57 -55 63 c-397 457 -522 1119 -320 1701 190
549 648 972 1208 1117 144 37 208 38 262 2z m615 -2 c794 -205 1339 -939 1305
-1756 -17 -397 -163 -773 -414 -1062 l-54 -62 62 -73 c451 -536 535 -1294 213
-1917 -89 -174 -178 -295 -319 -436 -181 -181 -376 -308 -613 -400 -114 -44
-281 -85 -346 -85 -160 0 -240 196 -126 310 32 32 50 40 151 64 551 133 945
539 1056 1091 24 124 24 386 0 505 -52 245 -159 468 -309 642 l-50 58 -46 -32
c-25 -17 -98 -58 -161 -91 -64 -33 -117 -60 -118 -61 -1 -1 25 -31 58 -66 291
-310 365 -752 189 -1127 -52 -112 -102 -184 -188 -275 -131 -137 -343 -261
-447 -261 -80 0 -138 40 -170 115 -43 104 11 204 135 252 25 10 75 38 112 62
197 131 303 363 277 603 -17 151 -74 268 -188 382 -208 208 -530 246 -784 92
-126 -76 -237 -224 -281 -372 -89 -302 78 -646 371 -766 110 -44 153 -99 153
-192 0 -62 -26 -110 -79 -148 -66 -47 -129 -42 -255 18 -127 61 -202 115 -302
219 -351 366 -375 931 -57 1328 133 166 331 293 538 345 74 19 145 28 272 35
97 5 210 18 260 29 547 121 947 528 1065 1085 30 144 30 380 0 523 -119 554
-512 953 -1070 1083 -78 18 -99 28 -132 58 -120 115 -40 310 127 312 28 0 103
-13 165 -29z"/>
</g>
</svg>
