<?xml version="1.0" standalone="no"?>
<!DOCTYPE svg PUBLIC "-//W3C//DTD SVG 20010904//EN"
 "http://www.w3.org/TR/2001/REC-SVG-20010904/DTD/svg10.dtd">
<svg version="1.0" xmlns="http://www.w3.org/2000/svg"
 width="700.000000pt" height="700.000000pt" viewBox="0 0 700.000000 700.000000"
 preserveAspectRatio="xMidYMid meet">
<metadata>
Created by potrace 1.11, written by Peter Selinger 2001-2013
</metadata>
<g transform="translate(0.000000,700.000000) scale(0.100000,-0.100000)"
fill="#000000" stroke="none">
<path d="M3279 6996 c-2 -2 -42 -7 -89 -10 -47 -4 -96 -8 -110 -10 -14 -3 -47
-7 -75 -10 -43 -5 -122 -19 -230 -40 -200 -40 -484 -128 -632 -196 -24 -11
-45 -20 -48 -20 -12 0 -226 -107 -323 -162 -186 -106 -409 -260 -538 -373
-136 -118 -260 -242 -404 -403 -180 -201 -406 -558 -533 -842 -73 -162 -167
-431 -192 -550 -2 -8 -15 -62 -28 -120 -14 -58 -31 -141 -37 -185 -6 -44 -13
-91 -16 -105 -15 -93 -19 -182 -19 -465 0 -176 3 -349 7 -385 16 -140 42 -287
74 -422 2 -10 6 -26 8 -35 111 -484 391 -1030 735 -1434 141 -165 434 -438
585 -544 16 -11 40 -29 55 -41 26 -20 130 -90 163 -109 10 -5 57 -33 105 -61
258 -151 592 -291 830 -349 10 -3 54 -14 98 -25 44 -11 94 -23 110 -25 17 -3
62 -12 100 -20 39 -7 91 -16 118 -19 26 -3 66 -8 90 -11 139 -18 249 -22 467
-20 135 2 256 6 270 9 14 2 48 7 75 10 162 17 354 55 555 109 239 66 584 211
779 329 34 21 65 38 67 38 6 0 176 113 239 158 227 163 494 413 657 616 287
356 468 680 616 1106 26 73 71 227 87 295 13 55 54 266 59 305 3 25 8 56 10
70 3 14 8 61 11 105 4 44 9 96 10 115 5 55 5 399 0 465 -5 69 -15 169 -20 205
-2 14 -7 45 -10 70 -117 855 -584 1666 -1286 2233 -47 37 -272 197 -313 222
-506 303 -947 454 -1521 520 -55 7 -551 16 -556 11z"/>
</g>
</svg>
