<?xml version="1.0" standalone="no"?>
<!DOCTYPE svg PUBLIC "-//W3C//DTD SVG 20010904//EN"
 "http://www.w3.org/TR/2001/REC-SVG-20010904/DTD/svg10.dtd">
<svg version="1.0" xmlns="http://www.w3.org/2000/svg"
 width="500.000000pt" height="500.000000pt" viewBox="0 0 500.000000 500.000000"
 preserveAspectRatio="xMidYMid meet">
<metadata>
Created by potrace 1.11, written by Peter Selinger 2001-2013
</metadata>
<g transform="translate(0.000000,500.000000) scale(0.100000,-0.100000)"
fill="#000000" stroke="none">
<path d="M2292 4196 l-73 -12 -391 -391 c-444 -444 -408 -392 -393 -569 l7
-87 303 303 c280 280 305 308 325 361 23 65 81 147 134 190 42 36 142 89 165
89 9 0 46 29 81 65 l64 65 -74 -1 c-41 -1 -108 -7 -148 -13z"/>
<path d="M2520 4156 l-54 -56 54 -1 c30 0 85 -8 122 -18 l67 -17 62 62 61 61
-29 7 c-15 3 -73 9 -128 12 l-100 6 -55 -56z"/>
<path d="M2812 4107 l-63 -64 41 -28 c22 -15 56 -45 74 -65 l34 -38 91 92 c50
50 91 94 91 98 0 10 -156 68 -182 68 -16 0 -45 -22 -86 -63z"/>
<path d="M2065 4140 c-168 -60 -299 -144 -414 -266 -66 -70 -91 -105 -130
-187 -43 -90 -78 -193 -69 -203 2 -2 157 150 343 336 187 187 335 340 330 339
-6 0 -32 -9 -60 -19z"/>
<path d="M3021 3976 l-103 -103 21 -40 c11 -22 28 -71 37 -108 l17 -67 148
148 148 148 -22 24 c-19 21 -130 102 -139 102 -2 0 -50 -47 -107 -104z"/>
<path d="M3158 3763 l-157 -158 6 -128 6 -129 204 204 c111 111 203 209 203
216 0 17 -87 152 -97 152 -5 0 -79 -71 -165 -157z"/>
<path d="M3212 3487 c-188 -189 -222 -228 -222 -253 0 -50 -38 -175 -74 -249
-31 -63 -129 -205 -142 -205 -2 0 -44 20 -92 44 l-89 44 -615 -616 c-351 -352
-618 -627 -621 -640 -6 -26 8 -188 19 -217 5 -13 61 37 265 241 256 256 259
259 270 314 24 116 81 219 176 320 l65 69 64 -32 64 -32 607 607 606 606 -11
73 c-14 88 -30 149 -40 149 -4 0 -108 -100 -230 -223z"/>
<path d="M1746 3381 l-290 -290 12 -51 c13 -57 51 -150 61 -150 3 0 125 119
270 264 182 182 261 268 256 277 -5 7 -11 64 -14 126 l-6 113 -289 -289z"/>
<path d="M2900 2836 c-316 -317 -572 -577 -570 -579 3 -2 44 -24 91 -49 l87
-46 247 248 c277 277 260 248 171 293 l-30 15 45 22 c175 90 361 261 455 420
47 78 88 194 82 230 -2 16 -125 -101 -578 -554z"/>
<path d="M1806 3101 l-258 -259 40 -58 c23 -33 49 -69 59 -82 l18 -22 252 252
252 253 -39 59 c-22 33 -42 72 -45 88 -4 15 -10 28 -13 28 -4 0 -124 -116
-266 -259z"/>
<path d="M1945 2899 l-250 -250 55 -51 c107 -97 66 -116 351 168 l249 249 -73
67 c-39 37 -74 67 -77 68 -3 0 -118 -113 -255 -251z"/>
<path d="M2135 2740 c-200 -200 -247 -253 -235 -261 66 -42 145 -89 149 -89 9
0 506 499 501 503 -12 9 -158 97 -161 97 -2 0 -117 -113 -254 -250z"/>
<path d="M2791 2386 l-244 -244 44 -27 c24 -16 62 -40 85 -56 l41 -28 248 249
248 248 -78 51 c-43 28 -83 51 -89 51 -6 0 -121 -110 -255 -244z"/>
<path d="M2999 2253 l-247 -248 72 -67 71 -68 250 251 250 250 -70 65 c-38 35
-72 64 -75 64 -3 0 -116 -111 -251 -247z"/>
<path d="M3171 2086 l-253 -253 23 -44 c12 -24 30 -70 39 -101 l16 -58 273
274 c262 262 273 274 261 297 -12 22 -99 139 -103 139 -1 0 -116 -114 -256
-254z"/>
<path d="M1890 2282 c-199 -111 -377 -264 -448 -383 -33 -57 -75 -164 -70
-180 2 -5 142 130 313 301 170 170 305 310 300 310 -6 0 -48 -22 -95 -48z"/>
<path d="M3288 1863 l-278 -278 -4 -110 c-3 -60 -11 -137 -20 -169 l-14 -59
336 336 335 335 -17 65 c-9 35 -27 85 -39 111 l-22 47 -277 -278z"/>
<path d="M3284 1497 c-199 -199 -380 -387 -403 -417 -23 -30 -70 -75 -104
-101 -34 -26 -93 -80 -132 -119 l-70 -72 80 6 c44 4 112 12 150 18 l70 11 393
391 392 391 0 115 c0 63 -4 120 -8 127 -5 8 -128 -108 -368 -350z"/>
<path d="M1643 1578 c-134 -134 -243 -249 -243 -256 0 -17 53 -121 76 -150
l19 -23 198 199 198 198 -3 137 -3 137 -242 -242z"/>
<path d="M3300 1184 c-184 -185 -326 -333 -315 -329 11 4 44 16 74 26 211 74
415 245 510 428 39 75 76 182 69 201 -2 6 -154 -141 -338 -326z"/>
<path d="M1702 1297 l-184 -184 68 -61 c37 -34 72 -62 78 -62 6 0 73 62 149
138 l138 138 -26 88 c-14 49 -25 97 -25 107 0 11 -3 19 -8 19 -4 0 -90 -83
-190 -183z"/>
<path d="M1837 1092 c-70 -70 -127 -130 -127 -133 0 -3 41 -25 91 -49 l92 -42
98 98 98 97 -38 46 c-21 25 -47 61 -57 79 -10 17 -21 32 -24 32 -3 0 -63 -57
-133 -128z"/>
<path d="M2032 947 c-45 -45 -82 -85 -82 -89 0 -8 168 -48 202 -48 16 0 43 20
82 59 l59 59 -54 27 c-30 15 -68 38 -86 51 -17 13 -33 24 -35 24 -2 0 -40 -37
-86 -83z"/>
<path d="M2285 860 l-57 -57 32 -7 c18 -3 83 -6 144 -6 l112 0 64 66 c36 37
56 64 45 60 -37 -13 -179 -18 -232 -9 l-52 10 -56 -57z"/>
</g>
</svg>
