<?xml version="1.0" standalone="no"?>
<!DOCTYPE svg PUBLIC "-//W3C//DTD SVG 20010904//EN"
 "http://www.w3.org/TR/2001/REC-SVG-20010904/DTD/svg10.dtd">
<svg version="1.0" xmlns="http://www.w3.org/2000/svg"
 width="700.000000pt" height="700.000000pt" viewBox="0 0 700.000000 700.000000"
 preserveAspectRatio="xMidYMid meet">
<metadata>
Created by potrace 1.11, written by Peter Selinger 2001-2013
</metadata>
<g transform="translate(0.000000,700.000000) scale(0.100000,-0.100000)"
fill="#000000" stroke="none">
<path d="M3373 6985 c-59 -13 -2083 -845 -2208 -908 -78 -39 -200 -161 -242
-242 -63 -123 -895 -2148 -909 -2213 -17 -85 -17 -159 0 -243 14 -65 859
-2121 914 -2224 36 -66 138 -173 204 -212 80 -49 2172 -913 2248 -929 83 -17
158 -17 240 0 76 16 2168 880 2248 929 66 39 168 146 204 212 54 103 900 2160
914 2224 17 84 17 158 0 242 -14 65 -846 2092 -909 2214 -41 79 -163 201 -242
242 -124 64 -2146 894 -2212 908 -83 18 -168 18 -250 0z m-28 -1005 c42 -26
69 -76 69 -130 0 -87 -51 -138 -159 -160 -337 -69 -647 -305 -807 -615 -222
-430 -167 -933 142 -1309 25 -30 48 -55 52 -56 4 0 40 20 81 45 41 24 104 59
140 76 37 17 67 34 67 37 0 4 -25 32 -56 62 -98 98 -175 236 -215 385 -31 115
-31 307 0 424 72 273 266 495 518 593 96 37 138 32 196 -22 37 -34 41 -43 45
-96 6 -88 -17 -116 -142 -178 -214 -105 -330 -287 -329 -511 2 -243 153 -447
384 -520 191 -60 392 -15 540 123 229 212 238 553 21 784 -53 56 -83 78 -159
115 -51 25 -104 58 -118 74 -71 85 -27 219 83 248 128 35 421 -166 544 -375
286 -482 50 -1104 -482 -1272 -99 -31 -104 -32 -271 -42 -233 -15 -373 -50
-533 -133 -574 -298 -804 -994 -521 -1573 159 -326 439 -550 798 -638 116 -29
140 -43 168 -98 42 -82 3 -179 -85 -213 -41 -16 -49 -16 -127 0 -106 22 -261
76 -358 125 -532 268 -854 814 -828 1404 15 332 125 626 332 884 l67 83 -55
67 c-166 203 -272 429 -324 687 -27 135 -24 435 5 568 83 374 281 687 579 911
101 76 310 183 429 221 180 57 248 62 309 25z m485 11 c576 -129 1014 -578
1141 -1171 19 -88 23 -135 23 -295 0 -205 -14 -297 -70 -470 -51 -156 -171
-373 -266 -482 -67 -76 -66 -66 -5 -140 163 -201 278 -446 324 -693 26 -142
24 -420 -5 -556 -70 -324 -206 -572 -440 -795 -206 -198 -475 -338 -749 -390
-58 -11 -65 -10 -110 12 -60 30 -85 65 -90 126 -5 55 17 105 57 135 14 10 77
32 139 48 225 59 400 158 556 313 344 343 443 832 262 1292 -46 116 -209 363
-241 365 -4 0 -40 -20 -80 -45 -39 -24 -102 -58 -139 -75 -37 -16 -67 -33 -67
-36 0 -4 33 -41 74 -84 85 -92 163 -235 198 -365 30 -117 30 -309 0 -423 -75
-279 -282 -511 -532 -598 -78 -27 -123 -23 -173 16 -34 27 -61 100 -53 142 13
67 40 94 143 145 210 102 323 278 323 503 0 161 -50 281 -165 395 -171 170
-410 210 -632 104 -92 -43 -206 -158 -251 -251 -138 -285 -22 -609 270 -751
106 -51 137 -82 145 -146 11 -80 -35 -148 -117 -172 -34 -10 -48 -9 -101 9
-144 49 -311 175 -403 306 -273 384 -195 917 175 1195 161 122 295 167 540
181 169 10 254 25 375 66 337 113 614 387 733 726 50 144 65 236 65 398 0 335
-122 621 -363 853 -153 147 -334 247 -536 297 -133 33 -167 53 -190 115 -30
78 3 162 78 195 52 24 52 24 157 1z"/>
</g>
</svg>
