<?xml version="1.0" standalone="no"?>
<!DOCTYPE svg PUBLIC "-//W3C//DTD SVG 20010904//EN"
 "http://www.w3.org/TR/2001/REC-SVG-20010904/DTD/svg10.dtd">
<svg version="1.0" xmlns="http://www.w3.org/2000/svg"
 width="722.000000pt" height="722.000000pt" viewBox="0 0 722.000000 722.000000"
 preserveAspectRatio="xMidYMid meet">
<metadata>
Created by potrace 1.11, written by Peter Selinger 2001-2013
</metadata>
<g transform="translate(0.000000,722.000000) scale(0.100000,-0.100000)"
fill="#000000" stroke="none">
<path d="M3535 7175 c-38 -24 -75 -48 -80 -53 -6 -5 -33 -21 -60 -37 -28 -16
-52 -32 -55 -35 -3 -3 -17 -11 -32 -19 -16 -8 -28 -18 -28 -23 0 -5 -4 -7 -9
-4 -5 3 -14 -1 -21 -9 -7 -8 -17 -15 -22 -15 -5 0 -14 -5 -21 -11 -7 -5 -41
-28 -77 -51 -36 -22 -89 -56 -117 -74 -29 -19 -57 -34 -63 -34 -5 0 -10 -4
-10 -8 0 -5 -12 -15 -27 -23 -16 -7 -64 -36 -108 -65 -44 -28 -95 -59 -112
-70 -18 -10 -33 -22 -33 -26 0 -4 -5 -8 -10 -8 -6 0 -36 -16 -66 -35 -30 -19
-57 -35 -60 -35 -2 0 -10 -5 -17 -11 -10 -9 -421 -269 -620 -392 -38 -23 -105
-66 -149 -94 -44 -29 -83 -53 -86 -53 -3 0 -19 -11 -36 -24 -17 -12 -47 -31
-66 -41 -19 -10 -37 -21 -40 -24 -3 -4 -70 -47 -150 -96 -80 -49 -147 -91
-150 -94 -3 -3 -18 -13 -35 -21 -16 -8 -35 -20 -41 -26 -7 -6 -45 -30 -85 -55
-41 -24 -78 -47 -84 -52 -5 -4 -58 -38 -117 -75 l-108 -67 0 -1805 0 -1806
213 -133 c116 -73 325 -205 462 -292 138 -87 257 -162 265 -166 19 -9 161
-100 177 -113 7 -5 15 -10 18 -10 4 0 40 -23 81 -50 41 -28 76 -50 79 -50 4 0
92 -56 175 -110 35 -24 307 -193 325 -204 11 -6 22 -14 25 -17 3 -3 10 -8 16
-10 5 -2 135 -83 287 -179 152 -96 300 -189 329 -207 29 -17 58 -37 65 -42 7
-6 15 -11 18 -11 3 0 18 -8 33 -18 82 -56 153 -102 158 -102 3 0 36 -20 74
-46 l68 -45 211 133 c116 73 222 140 235 148 113 70 173 108 246 155 47 31 93
58 103 61 9 4 17 10 17 15 0 5 5 9 12 9 6 0 26 11 43 25 18 13 35 21 39 18 3
-4 6 -1 6 5 0 7 15 19 33 27 17 9 59 33 92 55 33 22 85 54 115 71 30 18 57 36
60 40 3 4 23 17 46 30 22 13 87 53 143 89 57 36 115 72 129 81 61 36 609 382
634 400 15 10 31 19 37 19 5 0 11 3 13 8 2 6 79 55 166 107 19 12 43 27 159
102 45 29 86 53 92 53 5 0 11 4 13 8 2 5 37 28 78 52 41 25 77 47 80 50 3 4
20 15 38 25 l32 19 0 1806 0 1805 -48 30 c-108 67 -198 125 -209 135 -7 5 -15
10 -18 10 -6 0 -154 94 -172 110 -7 5 -15 10 -19 10 -4 0 -30 15 -58 34 -48
31 -197 126 -241 153 -88 53 -221 139 -226 146 -3 5 -9 8 -13 8 -3 0 -30 14
-58 32 -29 19 -170 107 -313 197 -305 191 -352 221 -425 269 -30 20 -59 38
-65 40 -5 2 -29 17 -52 32 -23 16 -45 29 -49 29 -4 0 -21 10 -38 23 -29 21
-308 199 -348 222 -20 11 -190 117 -288 180 -142 91 -229 145 -232 144 -2 0
-34 -20 -73 -44z"/>
</g>
</svg>
