<svg xmlns="http://www.w3.org/2000/svg" xmlns:xlink="http://www.w3.org/1999/xlink" width="500" height="500" viewBox="0 0 500 500">
  <defs>
    <path id="8-favicon-a" d="M0.864690722,262.680723 C0.864690722,245.168587 7.91245283,229.716934 22.0081885,216.325301 C36.1039241,202.933668 53.4654844,192.117511 74.0933903,183.876506 C30.4309896,161.213742 8.60011673,130.310437 8.60011673,91.1656627 C8.60011673,72.2800261 13.4132226,56.0557907 23.0395786,42.4924699 C32.6659347,28.9291491 45.8160274,18.4563622 62.4902513,11.0737952 C79.1644751,3.69122815 97.8152602,0 118.443166,0 C139.41487,0 156.948327,3.34785809 171.044063,10.0436747 C185.139799,16.7394913 195.711442,25.6671129 202.75931,36.8268072 C209.807177,47.9865016 213.331058,60.2619812 213.331058,73.6536145 C213.331058,83.9548708 210.580712,93.9126025 205.079937,103.527108 C199.579162,113.141614 192.273555,121.897551 183.162897,129.795181 C174.052239,137.692811 164.168182,144.216842 153.510431,149.36747 C179.295313,162.072353 198.633685,176.408053 211.526126,192.375 C224.418567,208.341947 230.864691,227.484828 230.864691,249.804217 C230.864691,277.617609 220.207099,299.936663 198.891597,316.762048 C177.576094,333.587434 149.041252,342 113.286215,342 C76.8435818,342 48.9963266,334.875071 29.7436145,320.625 C10.4909024,306.374929 0.864690722,287.060363 0.864690722,262.680723 Z M68.09546,61.7318008 C68.09546,71.9572818 69.9804592,81.4157099 73.7505143,90.1073688 C77.5205694,98.7990277 84.8035212,107.490556 95.599588,116.182215 C106.395655,124.873874 122.075422,134.16188 142.639358,144.046512 C152.921327,132.116784 159.433143,120.698501 162.175001,109.791321 C164.916859,98.8841416 166.287768,88.3179697 166.287768,78.0924886 C166.287768,53.8921835 161.660951,36.5943375 152.40718,26.1984318 C143.153408,15.8025261 130.986595,10.6046512 115.906374,10.6046512 C102.539815,10.6046512 91.2298196,15.1208375 81.976048,24.1533458 C72.7222763,33.1858541 68.09546,45.7118805 68.09546,61.7318008 Z M53.0569984,256.859801 C53.0569984,278.944518 58.5469202,296.888082 69.5269285,310.69103 C80.5069368,324.493978 95.2611016,331.395349 113.789866,331.395349 C130.946128,331.395349 143.984693,325.787985 152.905949,314.57309 C161.827206,303.358194 166.287768,288.779049 166.287768,270.835216 C166.287768,259.792857 163.885927,249.872137 159.082173,241.072757 C154.27842,232.273378 145.957757,223.732932 134.119935,215.451163 C122.282114,207.169394 105.898129,198.370146 84.9674879,189.053156 C83.2518616,188.363009 81.5362611,187.500337 79.8206348,186.465116 C72.2718791,193.711664 66.6103972,200.526768 62.8360194,206.910631 C59.0616415,213.294495 56.4882407,220.3684 55.1157397,228.132558 C53.7432386,235.896717 53.0569984,245.472368 53.0569984,256.859801 Z"/>
  </defs>
  <g fill="none" fill-rule="evenodd">
    <circle cx="250" cy="250" r="250" fill="#F7F4DB"/>
    <g transform="translate(135 79)">
      <mask id="8-favicon-b" fill="#fff">
        <use xlink:href="#8-favicon-a"/>
      </mask>
      <use fill="#3F5523" fill-rule="nonzero" xlink:href="#8-favicon-a"/>
      <polygon fill="#F7F4DB" fill-rule="nonzero" points="-152.534 343.785 271.865 -80.613 268.264 -84.215 -156.135 340.184" mask="url(#8-favicon-b)"/>
      <polygon fill="#F7F4DB" fill-rule="nonzero" points="-135.534 361.785 288.865 -62.613 285.264 -66.215 -139.135 358.184" mask="url(#8-favicon-b)"/>
      <polygon fill="#F7F4DB" fill-rule="nonzero" points="-118.534 377.785 305.865 -46.613 302.264 -50.215 -122.135 374.184" mask="url(#8-favicon-b)"/>
      <polygon fill="#F7F4DB" fill-rule="nonzero" points="-101.534 394.785 322.865 -29.613 319.264 -33.215 -105.135 391.184" mask="url(#8-favicon-b)"/>
      <polygon fill="#F7F4DB" fill-rule="nonzero" points="-84.534 411.785 339.865 -12.613 336.264 -16.215 -88.135 408.184" mask="url(#8-favicon-b)"/>
      <polygon fill="#F7F4DB" fill-rule="nonzero" points="-67.534 428.785 356.865 4.387 353.264 .785 -71.135 425.184" mask="url(#8-favicon-b)"/>
      <polygon fill="#F7F4DB" fill-rule="nonzero" points="-169.534 326.785 254.865 -97.613 251.264 -101.215 -173.135 323.184" mask="url(#8-favicon-b)"/>
      <polygon fill="#F7F4DB" fill-rule="nonzero" points="-50.534 445.785 373.865 21.387 370.264 17.785 -54.135 442.184" mask="url(#8-favicon-b)"/>
      <polygon fill="#F7F4DB" fill-rule="nonzero" points="-186.534 309.785 237.865 -114.613 234.264 -118.215 -190.135 306.184" mask="url(#8-favicon-b)"/>
      <polygon fill="#F7F4DB" fill-rule="nonzero" points="-33.534 462.785 390.865 38.387 387.264 34.785 -37.135 459.184" mask="url(#8-favicon-b)"/>
      <polygon fill="#F7F4DB" fill-rule="nonzero" points="-23.534 488.785 400.865 64.387 397.264 60.785 -27.135 485.184" mask="url(#8-favicon-b)"/>
      <polygon fill="#F7F4DB" fill-rule="nonzero" points="-203.534 293.785 220.865 -130.613 217.264 -134.215 -207.135 290.184" mask="url(#8-favicon-b)"/>
      <polygon fill="#F7F4DB" fill-rule="nonzero" points="-3.534 501.785 420.865 77.387 417.264 73.785 -7.135 498.184" mask="url(#8-favicon-b)"/>
    </g>
  </g>
</svg>
