<svg id="Layer_1" data-name="Layer 1" xmlns="http://www.w3.org/2000/svg" viewBox="0 0 828.64 828.64"><defs><style>.cls-1{fill:#3d5b58;}.cls-2{fill:#fecb8b;}</style></defs><title>8-ICON_OCT</title><path class="cls-1" d="M681.33,308.38,438.47,409a70.8,70.8,0,0,0-38.35,38.35L299.52,690.19a70.89,70.89,0,0,0,0,54.24l100.6,242.85a70.85,70.85,0,0,0,38.35,38.36l242.86,100.59a70.87,70.87,0,0,0,54.23,0l242.86-100.59a70.85,70.85,0,0,0,38.35-38.36l100.6-242.85a70.89,70.89,0,0,0,0-54.24l-100.6-242.86A70.8,70.8,0,0,0,978.42,409L735.56,308.38A70.87,70.87,0,0,0,681.33,308.38Z" transform="translate(-294.13 -302.99)"/><path class="cls-2" d="M684,977.25h0a140.4,140.4,0,0,1,24.41-278.65h0a103,103,0,0,0,34.47-200h0a18.78,18.78,0,0,0-13.11,35.2h0a65.29,65.29,0,1,1-43.28,0h0A18.69,18.69,0,1,0,674,498.6h0a103,103,0,0,0-32.26,175.49,178.18,178.18,0,0,0-34.63,18.74,140.4,140.4,0,0,1,76.51-235.39h0a18.72,18.72,0,1,0-7.22-36.74,177.84,177.84,0,0,0-97.67,296.62,177.83,177.83,0,0,0,97.78,296.63,18.47,18.47,0,0,0,3.82.4A18.72,18.72,0,0,0,684,977.25Z" transform="translate(-294.13 -302.99)"/><path class="cls-2" d="M886.27,595.64a177.89,177.89,0,0,0-146.63-175.1h0a19.49,19.49,0,0,0-3.08-.25,18.69,18.69,0,0,0-3.19,37.1h0l-.06.05A140.39,140.39,0,0,1,711.07,736c-.89,0-1.79,0-2.69,0A103,103,0,0,0,672.6,935.6,18.72,18.72,0,1,0,686.81,901h0a65.65,65.65,0,0,1,21.56-127.65h.06v.12h0c1.09,0,2.17,0,3.25,0A65.65,65.65,0,0,1,730,901h0a18.72,18.72,0,1,0,14.49,34.49,103,103,0,0,0,30.62-175,177.65,177.65,0,0,0,34.61-18.72,140.38,140.38,0,0,1-76.87,235.44h0a18.72,18.72,0,1,0,7.25,36.73h0l.18,0A177.84,177.84,0,0,0,838.12,717.3,177.21,177.21,0,0,0,886.27,595.64Z" transform="translate(-294.13 -302.99)"/></svg>