<svg xmlns="http://www.w3.org/2000/svg" xmlns:xlink="http://www.w3.org/1999/xlink" width="500" height="500" viewBox="0 0 500 500">
  <defs>
    <polygon id="8-logotype-a" points="0 .544 197.612 .544 197.612 201.725 0 201.725"/>
    <polygon id="8-logotype-c" points="0 .184 197.612 .184 197.612 201 0 201"/>
  </defs>
  <g fill="none" fill-rule="evenodd">
    <circle cx="250" cy="250" r="250" fill="#F7F4DB"/>
    <g transform="translate(151 68)">
      <g transform="translate(.531)">
        <mask id="8-logotype-b" fill="#fff">
          <use xlink:href="#8-logotype-a"/>
        </mask>
        <path fill="#405526" d="M99.7310471,82.9584363 C108.439165,83.4217104 115.507376,90.6843514 115.786906,99.4389846 C115.950741,104.551378 113.8698,109.17632 110.464976,112.405981 L98.8062706,124.117301 L87.1460118,112.405201 C83.8662,109.294089 81.8163176,104.888305 81.8163176,99.999749 C81.8163176,90.2663127 89.9281059,82.436668 99.7310471,82.9584363 M29.8805294,170.88849 L29.8758706,170.89317 C29.8758706,170.89317 60.5713059,201.725077 60.5713059,201.725077 C67.0455176,195.160467 73.5197294,188.595077 79.9939412,182.029687 C91.8824824,169.974421 103.771024,157.919154 115.658788,145.863888 C122.314694,139.113656 130.054553,132.884413 135.547306,125.082066 C140.547776,117.980089 143.063541,108.932985 143.063541,100.29378 C143.063541,75.1256718 122.241706,54.8422201 96.9567176,55.8771776 C74.3590941,56.8013861 55.8915176,75.0453398 54.6204353,97.7262741 C53.8618235,111.261834 59.1441529,123.565896 67.9982471,132.191842 L67.9881529,132.201981 L79.3976118,143.662166 L60.2288824,162.990212 C44.7181059,147.409695 26.8414235,126.545981 26.8414235,100.527757 C26.8414235,60.2829614 59.5851882,27.7196255 99.7737529,28.249973 C139.155565,28.7701815 171.055306,61.5043205 170.768788,101.063564 C170.653094,116.879618 165.466271,131.474313 156.779894,143.3229 L175.598435,162.225108 C194.016318,139.401448 202.566035,108.216236 194.670882,75.2060039 C186.368082,40.4900811 159.645071,12.9517876 125.238106,3.98657529 C59.2761529,-13.2013629 0.000388235294,36.3408919 0.000388235294,99.7891699 C0.000388235294,127.669849 11.451,152.859795 29.8805294,170.88849" mask="url(#8-logotype-b)"/>
      </g>
      <g transform="translate(.531 163)">
        <mask id="8-logotype-d" fill="#fff">
          <use xlink:href="#8-logotype-c"/>
        </mask>
        <path fill="#405526" d="M97.8811835,118.731869 C89.1730659,118.268322 82.1048541,111.015183 81.8245482,102.269345 C81.6614894,97.161764 83.7416541,92.5426593 87.1472541,89.3165314 L98.80596,77.6187988 L110.466219,89.3173105 C113.746031,92.4250198 115.795913,96.8259849 115.795913,101.709194 C115.795913,111.431985 107.684125,119.253066 97.8811835,118.731869 L97.8811835,118.731869 Z M137.139536,0.183938372 C129.583701,7.81804302 122.029419,15.4513686 114.473584,23.0846942 C101.699866,35.991543 64.24836,72.606264 60.3427129,79.4683105 C56.5504306,86.1316942 54.5486894,93.7439849 54.5486894,101.415485 C54.5486894,126.556066 75.3705247,146.817334 100.655513,145.784287 C123.256242,144.86031 141.726148,126.630857 142.992572,103.971613 C143.747301,90.4461826 138.461089,78.1540198 129.600784,69.5390663 L129.605442,69.5336128 L118.195984,58.0859616 L137.38956,38.8320314 C151.908007,53.399857 170.770031,75.4685663 170.770031,101.565066 C170.770031,141.765066 138.026266,174.292787 97.8384776,173.763799 C58.3091365,173.242601 26.3534894,140.308985 26.8473247,100.647322 C27.0453247,84.7418337 32.3851129,70.0875314 41.2547365,58.2456709 L22.2630424,39.1904035 C3.69685412,61.987543 -4.96855765,93.2181128 2.91106588,126.294299 C11.1859129,161.027566 37.9260071,188.596508 72.3787835,197.562822 C138.338407,214.727287 197.611842,165.239997 197.611842,101.86345 C197.611842,75.3384616 187.221889,51.2542988 170.31036,33.4634616 L137.139536,0.183938372 Z" mask="url(#8-logotype-d)"/>
      </g>
    </g>
  </g>
</svg>
