<svg id="Layer_1" data-name="Layer 1" xmlns="http://www.w3.org/2000/svg" viewBox="0 0 712.7 879.75"><defs><style>.cls-1{fill:#3d5b58;}.cls-2{fill:#fecb8b;}</style></defs><title>8_ICON</title><path class="cls-1" d="M353.3,517.69V915.75a45.27,45.27,0,0,0,21.17,38.32l311.09,195.58a45.24,45.24,0,0,0,48.17,0l311.09-195.58A45.27,45.27,0,0,0,1066,915.75V517.69a45.24,45.24,0,0,0-21.17-38.32L733.73,283.79a45.24,45.24,0,0,0-48.17,0L374.47,479.37A45.24,45.24,0,0,0,353.3,517.69Z" transform="translate(-353.3 -276.84)"/><path class="cls-2" d="M685.68,971.54h0a137.63,137.63,0,0,1,23.94-273.16h0a100.93,100.93,0,0,0,33.79-196h0a18.41,18.41,0,0,0-12.85,34.5h0a64,64,0,1,1-42.43,0h0a18.33,18.33,0,1,0-12.23-34.55h0a100.93,100.93,0,0,0-31.61,172,173.6,173.6,0,0,0-33.95,18.36,137.61,137.61,0,0,1,75-230.73h0a18.35,18.35,0,0,0-3.22-36.42,18.09,18.09,0,0,0-3.85.41,174.33,174.33,0,0,0-95.75,290.77,174.32,174.32,0,0,0,95.85,290.77,18.35,18.35,0,1,0,7.3-36Z" transform="translate(-353.3 -276.84)"/><path class="cls-2" d="M884,597.45A174.35,174.35,0,0,0,740.22,425.82h0a18.87,18.87,0,0,0-3-.25A18.32,18.32,0,0,0,734.07,462h0l-.06,0a137.63,137.63,0,0,1-21.79,273c-.88,0-1.76,0-2.64,0a101,101,0,0,0-35.07,195.71,18.35,18.35,0,1,0,13.92-33.93h0a64.35,64.35,0,0,1,21.13-125.13h.06v.12h0c1.06,0,2.11,0,3.17,0a64.35,64.35,0,0,1,17.94,125h0A18.35,18.35,0,1,0,745,930.58a101,101,0,0,0,30-171.5,174.42,174.42,0,0,0,33.92-18.35,137.62,137.62,0,0,1-75.35,230.8h0a18.35,18.35,0,0,0,3.55,36.36,18.93,18.93,0,0,0,3.56-.35h0l.18,0a174.33,174.33,0,0,0,95.85-290.78A173.69,173.69,0,0,0,884,597.45Z" transform="translate(-353.3 -276.84)"/></svg>