<svg id="Layer_1" data-name="Layer 1" xmlns="http://www.w3.org/2000/svg" viewBox="0 0 574.04 721.81"><defs><style>.cls-1{fill:#f7f3db;}.cls-2{fill:#405527;}</style></defs><title>8-LOGOTYPE</title><polygon class="cls-1" points="0 180.45 0 541.36 287.02 721.81 574.04 541.36 574.04 180.45 287.02 0 0 180.45"/><path class="cls-2" d="M619.58,699.6h0l39.53,39.54,25-25.26,45.93-46.37c8.58-8.65,18.54-16.64,25.62-26.65,6.44-9.1,9.68-20.7,9.68-31.78A57,57,0,1,0,668.67,650h0l14.69,14.7-24.68,24.78c-20-20-43-46.73-43-80.09a92.68,92.68,0,0,1,93.93-92.67c50.72.67,91.8,42.64,91.43,93.36a92.18,92.18,0,0,1-18,54.18l24.24,24.24C831,659.22,842,619.24,831.81,576.92a124.37,124.37,0,0,0-89.42-91.32c-84.95-22-161.29,41.48-161.29,122.83A126.9,126.9,0,0,0,619.58,699.6Zm90-112.74a21.87,21.87,0,0,1,13.83,37.75l-15,15-15-15a21.87,21.87,0,0,1,16.21-37.75Z" transform="translate(-421.33 -353.43)"/><path class="cls-2" d="M757.72,689.72l-29.19,29.4c-16.45,16.57-64.69,63.56-69.72,72.37A57,57,0,1,0,748,778.75h0l-14.7-14.69L758,739.33c18.7,18.7,43,47,43,80.52a92.68,92.68,0,0,1-93.93,92.68c-50.9-.67-92.06-42.94-91.42-93.85a92.2,92.2,0,0,1,18.55-54.43l-24.46-24.46c-23.91,29.26-35.07,69.35-24.92,111.81a124.41,124.41,0,0,0,89.47,91.48c84.94,22,161.28-41.49,161.28-122.84a126.8,126.8,0,0,0-35.16-87.8ZM707.16,841.89a21.88,21.88,0,0,1-13.83-37.76l15-15,15,15a21.88,21.88,0,0,1-16.21,37.76Z" transform="translate(-421.33 -353.43)"/></svg>